<?xml version="1.0"?>
<svg version="1.1" xmlns="http://www.w3.org/2000/svg" width="400px" height="200px" style="border: dashed 2px #aaa"><path fill="#f20574" d="M38.29345703125,89.28466796875q0-0.451171875,0.432373046875-0.6767578125t0.93994140625-0.33837890625t0.921142578125-0.11279296875l0.41357421875,0q1.31591796875,0,1.898681640625,0.6015625t1.409912109375,1.54150390625q5.6396484375,8.15869140625,10.33935546875,16.787353515625t9.06103515625,17.464111328125q0.3759765625-10.3017578125,0.770751953125-20.735107421875t0.996337890625-20.697509765625q0-0.451171875,0.432373046875-0.751953125t0.9775390625-0.451171875t1.109130859375-0.18798828125t0.86474609375-0.03759765625q0.451171875,0,0.996337890625,0.03759765625t1.09033203125,0.2255859375t0.90234375,0.451171875t0.357177734375,0.71435546875q0.150390625,1.61669921875,0.169189453125,3.252197265625t0.018798828125,3.252197265625q0,12.1064453125-0.5263671875,23.72412109375t-0.5263671875,23.4609375l0,2.70703125q0,0.150390625-0.150390625,0.451171875q0.0751953125,0.30078125,0.2255859375,0.657958984375t0.150390625,0.507568359375q0,0.6015625-0.620361328125,0.90234375t-1.353515625,0.469970703125t-1.297119140625,0.169189453125t-0.41357421875,0q-1.91748046875,0-3.2333984375-1.052734375t-1.31591796875-2.51904296875q-2.7822265625-6.2412109375-5.545654296875-12.388427734375t-5.771240234375-12.238037109375q-1.91748046875-3.8349609375-3.853759765625-7.688720703125t-4.154541015625-7.463134765625q0.0751953125,0.0751953125,0.0751953125,0.2255859375q0.3759765625,3.759765625,0.808349609375,7.500732421875t0.657958984375,7.500732421875q0.150390625,3.2333984375,0.33837890625,6.5419921875t0.6015625,6.5419921875q0,1.24072265625-0.770751953125,1.5791015625t-1.785888671875,0.33837890625q-0.86474609375,0-1.635498046875-0.2255859375t-0.921142578125-1.1279296875q0-3.458984375-0.26318359375-7.350341796875t-0.48876953125-7.839111328125q-0.3759765625-5.22607421875-0.996337890625-10.621337890625t-0.620361328125-10.546142578125q0-0.2255859375,0.03759765625-0.469970703125t0.03759765625-0.545166015625q-0.2255859375-0.3759765625-0.507568359375-0.78955078125t-0.281982421875-0.751953125z M80.052045898437,124.47607421875q0-2.556640625,0.695556640625-4.92529296875t2.086669921875-4.229736328125t3.477783203125-2.97021484375t4.831298828125-1.109130859375q1.69189453125,0,3.740966796875,0.507568359375t3.853759765625,1.50390625t3.0078125,2.537841796875t1.203125,3.5341796875q0,0.93994140625-0.319580078125,1.4287109375t-1.297119140625,0.48876953125l-0.41357421875-0.0751953125q1.09033203125,2.9326171875,1.8798828125,6.015625t1.54150390625,6.166015625q0.30078125,0.6015625,0.451171875,1.071533203125t0.150390625,0.921142578125q0,0.6015625-0.33837890625,0.996337890625t-0.883544921875,0.582763671875t-1.1279296875,0.26318359375t-1.033935546875,0.0751953125q-1.61669921875,0-2.425048828125-0.56396484375t-1.16552734375-1.54150390625t-0.432373046875-2.199462890625t-0.30078125-2.462646484375q-0.451171875,1.46630859375-1.184326171875,2.857421875t-1.7294921875,2.500244140625t-2.349853515625,1.76708984375t-3.04541015625,0.657958984375q-2.4814453125,0-4.17333984375-1.4287109375t-2.725830078125-3.515380859375t-1.50390625-4.455322265625t-0.469970703125-4.39892578125z M85.390913085937,123.94970703125q0,1.39111328125,0.18798828125,2.9326171875t0.620361328125,3.04541015625t1.109130859375,2.838623046875t1.69189453125,2.349853515625q1.84228515625-1.99267578125,2.725830078125-4.85009765625t1.5791015625-5.508056640625t1.5791015625-4.54931640625t2.725830078125-1.898681640625q1.16552734375,0,1.955078125,0.41357421875q-0.3759765625-0.93994140625-1.24072265625-1.823486328125t-1.936279296875-1.61669921875t-2.21826171875-1.203125t-2.161865234375-0.469970703125q-0.30078125,0-0.695556640625,0.093994140625t-0.620361328125,0.018798828125q-1.54150390625,0.451171875-2.537841796875,1.560302734375t-1.61669921875,2.613037109375t-0.883544921875,3.0830078125t-0.26318359375,2.97021484375z M112.63680664062,128.57421875l0-3.5341796875q0-1.91748046875,0.093994140625-5.432861328125t0.244384765625-7.70751953125t0.41357421875-8.741455078125t0.6015625-8.591064453125t0.808349609375-7.237548828125t1.071533203125-4.7373046875q0.3759765625-0.86474609375,1.24072265625-1.09033203125t1.69189453125-0.2255859375q1.31591796875,0,2.312255859375,0.582763671875t0.996337890625,2.124267578125l-0.6767578125,0.751953125q-1.31591796875,8.68505859375-1.69189453125,17.4453125t-0.5263671875,17.5205078125q0.93994140625-1.46630859375,2.124267578125-2.876220703125t2.6318359375-2.500244140625t3.12060546875-1.748291015625t3.665771484375-0.657958984375q2.556640625,0,4.229736328125,1.54150390625t2.763427734375,4.004150390625t1.61669921875,5.508056640625t0.808349609375,6.0908203125t0.394775390625,5.771240234375t0.33837890625,4.530517578125q-0.71435546875,0.9775390625-2.10546875,0.9775390625l-0.11279296875,0q-0.6015625,0-1.31591796875-0.150390625t-0.93994140625-0.751953125l0.0751953125,0.0751953125q-0.5263671875-1.16552734375-0.71435546875-3.364990234375t-0.30078125-4.85009765625t-0.394775390625-5.432861328125t-0.845947265625-5.0380859375t-1.654296875-3.72216796875t-2.9326171875-1.54150390625l-0.2255859375,0q-2.21826171875,0-3.72216796875,1.353515625q-1.5791015625,1.4287109375-2.556640625,3.759765625t-1.50390625,5.1884765625t-0.808349609375,5.508056640625t-0.432373046875,4.8125t-0.3759765625,3.177001953125q-0.2255859375,0.86474609375-1.334716796875,1.146728515625t-1.898681640625,0.281982421875q-1.84228515625,0-3.0078125-1.052734375q-0.86474609375-2.06787109375-1.01513671875-5.15087890625t-0.150390625-6.015625z M148.60535644531,123.57373046875q0-3.458984375,0.808349609375-6.786376953125t1.372314453125-6.635986328125q0.150390625-0.86474609375,1.184326171875-1.071533203125t1.748291015625-0.206787109375q1.24072265625,0,1.99267578125,0.3759765625q0.30078125,0.150390625,0.56396484375,0.33837890625t0.26318359375,0.48876953125q0,3.2333984375-0.770751953125,6.31640625t-0.770751953125,6.5419921875q0,1.16552734375,0.169189453125,2.199462890625t0.319580078125,2.049072265625l0.2255859375,1.09033203125q0,0.30078125,0.03759765625,0.5263671875t0.11279296875,0.5263671875q0,0.6767578125-0.958740234375,0.921142578125t-1.673095703125,0.244384765625q-1.09033203125,0-2.011474609375-0.432373046875t-1.447509765625-1.485107421875l-0.5263671875-1.09033203125q-0.451171875-0.86474609375-0.451171875-1.936279296875t-0.18798828125-1.973876953125z M151.01160644531,100.93994140625l0-0.71435546875q0-1.76708984375,0.883544921875-3.158203125t2.650634765625-1.39111328125q0.2255859375,0,0.432373046875,0.03759765625t0.432373046875,0.03759765625q0.451171875,0.0751953125,1.184326171875,0.357177734375t0.733154296875,0.883544921875l0,0.0751953125q-0.150390625,0.30078125-0.18798828125,0.620361328125t-0.18798828125,0.545166015625l0.0751953125-0.0751953125q-0.451171875,1.16552734375-0.733154296875,1.8798828125t-0.620361328125,1.146728515625t-0.845947265625,0.620361328125t-1.447509765625,0.18798828125q-0.150390625,0-0.5263671875-0.03759765625t-0.808349609375-0.150390625t-0.733154296875-0.30078125t-0.30078125-0.56396484375z M165.023125,124.02490234375q0-2.9326171875,0.620361328125-5.320068359375t1.973876953125-4.041748046875t3.552978515625-2.575439453125t5.357666015625-0.921142578125q1.76708984375,0,3.609375,0.469970703125t3.158203125,1.748291015625q0-0.751953125,0.150390625-3.101806640625t0.3759765625-5.470458984375t0.469970703125-6.5419921875t0.432373046875-6.35400390625t0.33837890625-4.92529296875t0.2255859375-2.255859375q0.3759765625-1.09033203125,1.39111328125-1.297119140625t1.91748046875-0.206787109375q2.36865234375,0,2.913818359375,0.751953125t0.545166015625,3.0078125q0,8.23388671875-0.733154296875,16.392578125t-0.733154296875,16.392578125q0,5.30126953125,0.206787109375,10.658935546875t1.485107421875,10.546142578125l0.41357421875,0.3759765625l0.2255859375,0.6767578125l-0.56396484375,0.86474609375q-1.4287109375,0.90234375-3.30859375,0.90234375l-0.150390625,0q-1.91748046875,0-3.5341796875-0.90234375q-0.6015625-0.3759765625-0.996337890625-2.237060546875t-0.620361328125-4.09814453125t-0.33837890625-4.304931640625t-0.18798828125-2.9326171875q-1.31591796875,3.0078125-3.590576171875,5.169677734375t-5.733642578125,2.161865234375q-2.70703125,0-4.4365234375-1.16552734375t-2.688232421875-2.97021484375t-1.353515625-4.041748046875t-0.394775390625-4.455322265625z M169.57244140625,124.25048828125q0,0.86474609375,0.206787109375,2.556640625t0.657958984375,3.3837890625t1.259521484375,3.0078125t2.124267578125,1.31591796875q1.76708984375-0.86474609375,3.19580078125-2.876220703125t2.462646484375-4.4365234375t1.61669921875-4.85009765625t0.582763671875-4.192138671875q0-2.21826171875-1.61669921875-3.6845703125t-3.87255859375-1.46630859375q-0.6767578125,0-1.372314453125,0.26318359375t-1.297119140625,0.6015625q-1.39111328125,1.31591796875-2.161865234375,2.387451171875t-1.16552734375,2.21826171875t-0.507568359375,2.537841796875t-0.11279296875,3.2333984375z M215.26637695312,131.3564453125q0-1.31591796875,0.90234375-1.673095703125t1.955078125-0.357177734375q1.84228515625,0,3.12060546875,1.654296875t2.425048828125,3.628173828125t2.274658203125,3.628173828125t2.66943359375,1.654296875q1.16552734375,0,2.124267578125-0.582763671875t1.654296875-1.46630859375t1.071533203125-1.99267578125t0.3759765625-2.199462890625q0-2.857421875-1.146728515625-5.90283203125t-2.9326171875-6.27880859375t-3.778564453125-6.6171875t-3.759765625-6.88037109375t-2.9326171875-7.124755859375t-1.16552734375-7.312744140625q0-5.52685546875,3.30859375-8.572265625t8.72265625-3.04541015625q1.84228515625,0,3.72216796875,0.5263671875t3.458984375,1.5791015625t2.575439453125,2.59423828125t0.996337890625,3.609375q0,0.6767578125-0.996337890625,0.883544921875t-1.447509765625,0.206787109375q-0.6767578125,0-1.46630859375-0.169189453125t-1.01513671875-0.921142578125t-0.63916015625-1.7294921875t-1.033935546875-1.823486328125t-1.46630859375-1.46630859375t-1.861083984375-0.620361328125q-1.69189453125,0-2.876220703125,0.695556640625t-1.91748046875,1.861083984375t-1.09033203125,2.613037109375t-0.357177734375,2.989013671875q0,3.609375,1.24072265625,7.275146484375t3.0830078125,7.2939453125t4.004150390625,7.162353515625t4.004150390625,6.88037109375t3.0830078125,6.5419921875t1.24072265625,6.05322265625q0,2.556640625-1.203125,4.32373046875t-3.04541015625,2.876220703125t-4.079345703125,1.61669921875t-4.380126953125,0.507568359375q-2.29345703125,0-4.69970703125-0.921142578125t-4.32373046875-2.537841796875t-3.158203125-3.778564453125t-1.24072265625-4.680908203125z M249.09186035156,128.57421875l0-3.5341796875q0-1.91748046875,0.093994140625-5.432861328125t0.244384765625-7.70751953125t0.41357421875-8.741455078125t0.6015625-8.591064453125t0.808349609375-7.237548828125t1.071533203125-4.7373046875q0.3759765625-0.86474609375,1.24072265625-1.09033203125t1.69189453125-0.2255859375q1.31591796875,0,2.312255859375,0.582763671875t0.996337890625,2.124267578125l-0.6767578125,0.751953125q-1.31591796875,8.68505859375-1.69189453125,17.4453125t-0.5263671875,17.5205078125q0.93994140625-1.46630859375,2.124267578125-2.876220703125t2.6318359375-2.500244140625t3.12060546875-1.748291015625t3.665771484375-0.657958984375q2.556640625,0,4.229736328125,1.54150390625t2.763427734375,4.004150390625t1.61669921875,5.508056640625t0.808349609375,6.0908203125t0.394775390625,5.771240234375t0.33837890625,4.530517578125q-0.71435546875,0.9775390625-2.10546875,0.9775390625l-0.11279296875,0q-0.6015625,0-1.31591796875-0.150390625t-0.93994140625-0.751953125l0.0751953125,0.0751953125q-0.5263671875-1.16552734375-0.71435546875-3.364990234375t-0.30078125-4.85009765625t-0.394775390625-5.432861328125t-0.845947265625-5.0380859375t-1.654296875-3.72216796875t-2.9326171875-1.54150390625l-0.2255859375,0q-2.21826171875,0-3.72216796875,1.353515625q-1.5791015625,1.4287109375-2.556640625,3.759765625t-1.50390625,5.1884765625t-0.808349609375,5.508056640625t-0.432373046875,4.8125t-0.3759765625,3.177001953125q-0.2255859375,0.86474609375-1.334716796875,1.146728515625t-1.898681640625,0.281982421875q-1.84228515625,0-3.0078125-1.052734375q-0.86474609375-2.06787109375-1.01513671875-5.15087890625t-0.150390625-6.015625z M283.51890625,121.16748046875q0-0.751953125,0.169189453125-1.99267578125t0.394775390625-2.462646484375t0.5263671875-2.274658203125t0.71435546875-1.353515625q0.30078125-0.30078125,1.033935546875-0.6015625t1.54150390625-0.432373046875t1.50390625,0.11279296875t0.845947265625,0.996337890625q-0.5263671875,0.6767578125-0.958740234375,2.312255859375t-0.657958984375,3.628173828125q-0.18798828125,1.69189453125-0.18798828125,3.49658203125l0,0.63916015625q0.03759765625,2.10546875,0.3759765625,3.87255859375t1.033935546875,2.913818359375t1.936279296875,1.146728515625q2.6318359375,0,4.8125-2.425048828125t3.87255859375-5.921630859375t2.97021484375-7.425537109375t2.1806640625-6.861572265625q0.2255859375-0.86474609375,1.071533203125-1.16552734375t1.823486328125-0.206787109375t1.748291015625,0.469970703125t0.921142578125,0.90234375q-0.751953125,6.31640625-1.184326171875,12.6328125t-0.432373046875,12.7080078125q0,1.24072265625,0.11279296875,2.274658203125t-0.11279296875,1.76708984375t-0.996337890625,1.16552734375t-2.462646484375,0.432373046875q-0.3759765625,0-0.958740234375-0.0751953125t-1.203125-0.244384765625t-1.052734375-0.507568359375t-0.432373046875-0.78955078125q0-2.7822265625,0.206787109375-5.71484375t0.582763671875-5.67724609375q-1.01513671875,1.46630859375-2.237060546875,2.913818359375t-2.688232421875,2.613037109375t-3.158203125,1.861083984375t-3.64697265625,0.695556640625q-2.7822265625,0-4.380126953125-1.31591796875t-2.40625-3.289794921875t-1.01513671875-4.304931640625t-0.206787109375-4.51171875z M317.34438964844,110.48974609375q0-0.30078125,0.357177734375-0.545166015625t0.808349609375-0.357177734375t0.921142578125-0.150390625t0.695556640625-0.03759765625q1.69189453125,0,2.89501953125,1.50390625t2.086669921875,3.853759765625t1.50390625,5.1884765625t1.184326171875,5.658447265625t1.109130859375,5.169677734375t1.221923828125,3.628173828125q1.16552734375-2.29345703125,2.124267578125-5.52685546875t1.76708984375-6.6923828125t1.4287109375-6.823974609375t0.996337890625-5.884033203125q0.150390625-0.6767578125,0.93994140625-0.845947265625t1.31591796875-0.169189453125q0.86474609375,0,1.50390625,0.244384765625t0.63916015625,1.071533203125q0,1.39111328125-0.33837890625,3.778564453125t-0.921142578125,5.357666015625t-1.353515625,6.0908203125t-1.654296875,5.921630859375t-1.84228515625,4.962890625t-1.898681640625,3.064208984375q-0.451171875,0.5263671875-1.409912109375,0.733154296875t-1.597900390625,0.206787109375q-2.21826171875,0-3.6845703125-1.16552734375l0,0.0751953125q-2.29345703125-2.14306640625-3.3837890625-5.22607421875t-1.5791015625-6.42919921875t-0.883544921875-6.65478515625t-1.334716796875-6.015625q-0.150390625-0.30078125-0.3759765625-0.883544921875t-0.5263671875-1.16552734375t-0.507568359375-1.109130859375t-0.206787109375-0.8271484375z M346.24458007812,125.1904296875q0-2.14306640625,0.545166015625-4.417724609375t1.7294921875-4.09814453125t2.989013671875-2.97021484375t4.361328125-1.146728515625q1.91748046875,0,4.041748046875,0.657958984375t3.891357421875,1.8798828125t2.876220703125,2.989013671875t1.109130859375,3.94775390625q0,2.6318359375-0.958740234375,5.00048828125t-2.688232421875,4.229736328125t-4.041748046875,2.9326171875t-5.019287109375,1.071533203125q-2.21826171875,0-3.87255859375-0.808349609375t-2.763427734375-2.161865234375t-1.654296875-3.19580078125t-0.545166015625-3.91015625z M351.77143554687,125.115234375q0,0.6767578125,0.206787109375,1.99267578125t0.620361328125,2.575439453125t1.071533203125,2.1806640625t1.597900390625,0.845947265625q1.99267578125-0.2255859375,3.289794921875-1.297119140625t2.10546875-2.613037109375t1.1279296875-3.34619140625t0.319580078125-3.42138671875q0-2.06787109375-0.808349609375-3.458984375t-2.650634765625-2.255859375q0,0.0751953125,0.0751953125,0.0751953125t0.0751953125-0.0751953125l-0.93994140625-0.2255859375q-0.3759765625-0.150390625-0.921142578125-0.33837890625t-1.071533203125-0.8271484375q-1.46630859375,0.5263671875-2.274658203125,1.353515625t-1.221923828125,2.011474609375t-0.507568359375,2.838623046875t-0.093994140625,3.9853515625z"/><path fill="#" d=""/></svg>
